<?xml version="1.0" encoding="UTF-8"?>
<svg width="23px" height="15px" viewBox="0 0 23 15" version="1.1" xmlns="http://www.w3.org/2000/svg" xmlns:xlink="http://www.w3.org/1999/xlink">
    <!-- Generator: Sketch 48.2 (47327) - http://www.bohemiancoding.com/sketch -->
    <title>arrow talk</title>
    <desc>Created with Sketch.</desc>
    <defs></defs>
    <g id="Homepage-re-Copy-14" stroke="none" stroke-width="1" fill="none" fill-rule="evenodd" transform="translate(-775.000000, -4262.000000)">
        <path d="M798,4269.49497 C797.975475,4269.21856 797.86574,4268.89162 797.711045,4268.71386 L792.427289,4262.46491 C791.912167,4261.91027 791.110018,4261.86053 790.56964,4262.26954 C790.029261,4262.67856 789.930975,4263.51591 790.363322,4264.02715 L793.927105,4268.24517 L776.320939,4268.24517 C775.591428,4268.24517 775,4268.80476 775,4269.49497 C775,4270.18523 775.591428,4270.74476 776.320939,4270.74476 L793.927105,4270.74476 L790.363322,4274.96278 C789.930975,4275.47399 790.045874,4276.29243 790.56964,4276.72036 C791.138753,4277.18532 791.995043,4277.0363 792.427289,4276.52502 L797.711045,4270.27609 C797.934649,4270.01713 797.996094,4269.827 798,4269.49497 Z" id="arrow-talk" fill="#FFFFFF" fill-rule="nonzero"></path>
    </g>
</svg>