<?xml version="1.0" encoding="UTF-8"?>
<svg width="15px" height="10px" viewBox="0 0 15 10" version="1.1" xmlns="http://www.w3.org/2000/svg" xmlns:xlink="http://www.w3.org/1999/xlink">
    <!-- Generator: Sketch 48.2 (47327) - http://www.bohemiancoding.com/sketch -->
    <title>arrow header copy</title>
    <desc>Created with Sketch.</desc>
    <defs></defs>
    <g id="Contact-Copy-2" stroke="none" stroke-width="1" fill="none" fill-rule="evenodd" transform="translate(-392.000000, -986.000000)">
        <path d="M407,990.996649 C406.984005,990.812375 406.912439,990.594412 406.811551,990.475905 L403.365623,986.309943 C403.029674,985.940182 402.506534,985.907018 402.154113,986.179696 C401.801692,986.452371 401.737592,987.010609 402.019558,987.351431 L404.343764,990.163448 L392.861482,990.163448 C392.385714,990.163448 392,990.536506 392,990.996649 C392,991.45682 392.385714,991.829839 392.861482,991.829839 L404.343764,991.829839 L402.019558,994.641856 C401.737592,994.982658 401.812527,995.528287 402.154113,995.813571 C402.525274,996.123546 403.083724,996.024202 403.365623,995.683344 L406.811551,991.517393 C406.95738,991.344756 406.997453,991.218 407,990.996649 Z" id="arrow-header-copy" fill="#114BE9" fill-rule="nonzero"></path>
    </g>
</svg>