<?xml version="1.0" encoding="UTF-8"?>
<svg width="23px" height="15px" viewBox="0 0 23 15" version="1.1" xmlns="http://www.w3.org/2000/svg" xmlns:xlink="http://www.w3.org/1999/xlink">
    <!-- Generator: Sketch 48.2 (47327) - http://www.bohemiancoding.com/sketch -->
    <title>arrow 3</title>
    <desc>Created with Sketch.</desc>
    <defs></defs>
    <g id="Homepage-re-Copy-14" stroke="none" stroke-width="1" fill="none" fill-rule="evenodd" transform="translate(-188.000000, -3679.000000)" opacity="0.5">
        <path d="M211,3686.49497 C210.975475,3686.21856 210.86574,3685.89162 210.711045,3685.71386 L205.427289,3679.46491 C204.912167,3678.91027 204.110018,3678.86053 203.56964,3679.26954 C203.029261,3679.67856 202.930975,3680.51591 203.363322,3681.02715 L206.927105,3685.24517 L189.320939,3685.24517 C188.591428,3685.24517 188,3685.80476 188,3686.49497 C188,3687.18523 188.591428,3687.74476 189.320939,3687.74476 L206.927105,3687.74476 L203.363322,3691.96278 C202.930975,3692.47399 203.045874,3693.29243 203.56964,3693.72036 C204.138753,3694.18532 204.995043,3694.0363 205.427289,3693.52502 L210.711045,3687.27609 C210.934649,3687.01713 210.996094,3686.827 211,3686.49497 Z" id="arrow-3" fill="#FFFFFF" fill-rule="nonzero" transform="translate(199.500000, 3686.500000) rotate(-180.000000) translate(-199.500000, -3686.500000) "></path>
    </g>
</svg>