<?xml version="1.0" encoding="UTF-8"?>
<svg width="15px" height="10px" viewBox="0 0 15 10" version="1.1" xmlns="http://www.w3.org/2000/svg" xmlns:xlink="http://www.w3.org/1999/xlink">
    <!-- Generator: Sketch 48.2 (47327) - http://www.bohemiancoding.com/sketch -->
    <title>arrow2 </title>
    <desc>Created with Sketch.</desc>
    <defs></defs>
    <g id="Homepage-re-Copy-14" stroke="none" stroke-width="1" fill="none" fill-rule="evenodd" transform="translate(-187.000000, -3299.000000)">
        <path d="M202,3303.99665 C201.984005,3303.81237 201.912439,3303.59441 201.811551,3303.47591 L198.365623,3299.30994 C198.029674,3298.94018 197.506534,3298.90702 197.154113,3299.1797 C196.801692,3299.45237 196.737592,3300.01061 197.019558,3300.35143 L199.343764,3303.16345 L187.861482,3303.16345 C187.385714,3303.16345 187,3303.53651 187,3303.99665 C187,3304.45682 187.385714,3304.82984 187.861482,3304.82984 L199.343764,3304.82984 L197.019558,3307.64186 C196.737592,3307.98266 196.812527,3308.52829 197.154113,3308.81357 C197.525274,3309.12355 198.083724,3309.0242 198.365623,3308.68334 L201.811551,3304.51739 C201.95738,3304.34476 201.997453,3304.218 202,3303.99665 Z" id="arrow2-" fill="#FFFFFF" fill-rule="nonzero"></path>
    </g>
</svg>