<?xml version="1.0" encoding="UTF-8"?>
<svg width="39px" height="45px" viewBox="0 0 39 45" version="1.1" xmlns="http://www.w3.org/2000/svg" xmlns:xlink="http://www.w3.org/1999/xlink">
    <!-- Generator: Sketch 48.2 (47327) - http://www.bohemiancoding.com/sketch -->
    <title>C</title>
    <desc>Created with Sketch.</desc>
    <defs></defs>
    <g id="Career" stroke="none" stroke-width="1" fill="none" fill-rule="evenodd" transform="translate(-782.000000, -1313.000000)" opacity="0.05">
        <path d="M811.880664,1341.20898 L820.288867,1343.875 C818.999798,1348.56252 816.856265,1352.04393 813.858203,1354.31934 C810.860141,1356.59474 807.056468,1357.73242 802.44707,1357.73242 C796.743917,1357.73242 792.056464,1355.7842 788.38457,1351.8877 C784.712677,1347.99119 782.876758,1342.6641 782.876758,1335.90625 C782.876758,1328.75778 784.722442,1323.20607 788.413867,1319.25098 C792.105292,1315.29588 796.958759,1313.31836 802.974414,1313.31836 C808.228347,1313.31836 812.495882,1314.87108 815.777148,1317.97656 C817.730283,1319.81251 819.195112,1322.4492 820.17168,1325.88672 L811.587695,1327.9375 C811.07988,1325.71093 810.02032,1323.95313 808.408984,1322.66406 C806.797648,1321.37499 804.83966,1320.73047 802.534961,1320.73047 C799.351351,1320.73047 796.768369,1321.87304 794.785937,1324.1582 C792.803506,1326.44337 791.812305,1330.14451 791.812305,1335.26172 C791.812305,1340.69143 792.788857,1344.55858 794.741992,1346.86328 C796.695127,1349.16798 799.234164,1350.32031 802.35918,1350.32031 C804.663879,1350.32031 806.646281,1349.5879 808.306445,1348.12305 C809.96661,1346.6582 811.158004,1344.35353 811.880664,1341.20898 Z" id="C" fill="#101241"></path>
    </g>
</svg>