<?xml version="1.0" encoding="UTF-8"?>
<svg width="103px" height="32px" viewBox="0 0 103 32" version="1.1" xmlns="http://www.w3.org/2000/svg" xmlns:xlink="http://www.w3.org/1999/xlink">
    <!-- Generator: Sketch 48.2 (47327) - http://www.bohemiancoding.com/sketch -->
    <title>logo</title>
    <desc>Created with Sketch.</desc>
    <defs></defs>
    <g id="Homepage-re-Copy-14" stroke="none" stroke-width="1" fill="none" fill-rule="evenodd" transform="translate(-167.000000, -18.000000)">
        <g id="logo" transform="translate(168.000000, 19.000000)" fill="#101241" fill-rule="nonzero" stroke="#101241" stroke-width="0.2">
            <path d="M17.5487106,23.5987681 L10.8696275,6.90277167 L10.3151862,5.5433348 C9.85100287,4.46106467 9.63180516,3.60316762 9.63180516,2.99604048 C9.63180516,2.49450066 9.747851,2.04575451 9.99283668,1.64980202 C10.2378223,1.25384954 10.5472779,0.963484382 10.9340974,0.791904971 C11.3982808,0.607127145 12.2492837,0.501539815 13.512894,0.501539815 L13.512894,0 L0,0 L0,0.501539815 C0.73495702,0.55433348 1.28939828,0.646722393 1.70200573,0.739111307 C2.1017192,0.844698636 2.4756447,1.01627805 2.82378223,1.24065112 C3.24928367,1.51781786 3.62320917,1.90057193 3.91977077,2.38891333 C4.21633238,2.87725473 4.59025788,3.65596128 5.04154728,4.73823141 L5.68624642,6.34843819 L15.2793696,30 L16.2464183,30 L18,24.6942367 L17.5487106,23.5987681 Z" id="Shape"></path>
            <path d="M38.0534521,0 L38.0534521,0.501539815 C39.0997773,0.501539815 39.8877506,0.65992081 40.3915367,0.989881214 C41.2311804,1.53101628 41.657461,2.45490541 41.657461,3.76154861 C41.657461,5.00219974 41.1924276,6.77078751 40.2752784,9.04091509 L34.35902,23.8759349 L29.0628062,6.45402552 C28.6623608,5.14738231 28.4556793,4.2366916 28.4556793,3.70875495 C28.4556793,3.14122305 28.5848552,2.60008799 28.8561247,2.11174659 C29.1273942,1.62340519 29.4632517,1.24065112 29.9024499,0.976682798 C30.2383073,0.791904971 30.5870824,0.65992081 30.9616927,0.607127145 C31.3363029,0.55433348 31.9563474,0.514738231 32.7959911,0.514738231 L32.7959911,0.0131984162 L19,0.0131984162 L19,0.514738231 C19.7492205,0.514738231 20.3563474,0.593928729 20.8342984,0.752309723 C21.3122494,0.910690717 21.7385301,1.18785746 22.1131403,1.57061153 C22.5006682,1.96656401 22.8106904,2.48130224 23.0432071,3.11482622 C23.2757238,3.7483502 24.2832962,6.5992081 24.2832962,6.5992081 L31.9434298,30 L32.8218263,30 L41.657461,8.11702596 C42.7296214,5.43774747 43.633853,3.57677079 44.3443207,2.56049274 C44.8351893,1.84777827 45.3260579,1.34623845 45.8169265,1.08227013 C46.3077951,0.805103388 47.044098,0.620325561 48,0.527936648 L48,0.0263968324 L38.0534521,0.0263968324 L38.0534521,0 Z" id="Shape"></path>
            <polygon id="Shape" points="51 25 51 5 53 5 53 24.987163 51 24.987163"></polygon>
            <polygon id="Shape" points="74.6932465 6.73299101 74.6932465 6.68164313 63.3930024 6.68164313 63.3930024 5 78 5 65.3978845 23.2284981 65.3978845 23.2926829 77.2188771 23.2926829 77.2188771 25 62 25"></polygon>
            <polygon id="Shape" points="92.04 25 92.04 16.1681643 85 5 87.24 5 92.9466667 14.2939666 93.0266667 14.2939666 98.7733333 5 101 5 93.96 16.1424904 93.96 24.987163 92.04 24.987163"></polygon>
        </g>
    </g>
</svg>